:SAMPLES-PER-SECOND 30
:FRAME-RANGE 1-668
:FULLY-SPECIFIED
:DEGREES
397
root  45.7417 39.2832 -38.6389 176.968 -36.4113 -176.968
RightUpLeg  -7.19954 -13.1334 -2.96293
RightLeg  18.945 -9.98575 0.986284
RightFoot  -9.06236 -0.201047 6.99905
RightToes  -1.33073e-015 0 -3.6325e-017
Spine  7.63712 2.26363 11.9051
Spine1  2.04057 4.50871 -5.56374
HEad  -17.2952 62.8518 -19.1005
LeftShoulder1  1.15776 0.513548 -32.654
LeftArm  2.35054 -1.98964 -33.449
LeftForeArm  10.7356 -1.2969 -17.4876
LeftHand  0.19074 -1.11171 -3.31576
RightShoulder  9.80386 13.6661 49.9936
RightArm  4.41827 2.82554 11.6131
RightForeArm  18.9182 -4.54964 17.0625
RightHand  0.0711378 3.51724 0.677671
LeftUpLeg  -21.5836 6.47212 3.24101
LeftLeg  46.4853 0.127227 0.549965
LeftFoot  -6.56093 0.331439 -6.9935
LeftToes  -2.73175e-012 1.00346e-010 -4.28452e-011
398
root  45.5825 39.5388 -39.5674 177.594 -38.6525 -177.36
RightUpLeg  -4.14645 -11.0498 -3.19532
RightLeg  15.4293 -14.0265 1.50959
RightFoot  -9.00491 -0.205993 7.08783
RightToes  -1.33073e-015 0 -3.6325e-017
Spine  7.05144 2.80566 11.677
Spine1  1.70637 4.97085 -6.53671
HEad  -17.355 62.2503 -19.34
LeftShoulder1  1.12473 0.624027 -32.9889
LeftArm  0.731894 0.907765 -31.8655
LeftForeArm  9.17814 1.75781 -18.016
LeftHand  0.186262 -0.297365 -3.79785
RightShoulder  9.68886 13.6275 49.5205
RightArm  3.86339 2.73386 11.556
RightForeArm  18.3418 -4.12478 17.0057
RightHand  0.0544553 3.56862 0.45396
LeftUpLeg  -22.4488 11.4348 -0.0321759
LeftLeg  38.4622 0.245048 0.572929
LeftFoot  -7.47783 0.282165 -7.03256
LeftToes  -2.73175e-012 1.00346e-010 -4.28452e-011
399
root  45.3793 39.7638 -40.4482 177.972 -41.116 -177.659
RightUpLeg  -0.693296 -10.2141 -3.12377
RightLeg  11.2848 -17.2824 2.29914
RightFoot  -8.69822 -0.222175 7.05579
RightToes  -1.33073e-015 0 -3.6325e-017
Spine  6.11014 3.20077 10.916
Spine1  2.24493 5.23787 -6.85382
HEad  -17.9864 61.0856 -20.0118
LeftShoulder1  1.09709 0.717591 -33.3046
LeftArm  -0.645733 4.19236 -30.3034
LeftForeArm  7.02839 3.28273 -18.1562
LeftHand  0.162334 0.564558 -4.02344
RightShoulder  9.63581 13.7959 48.7668
RightArm  3.64504 2.85742 11.5876
RightForeArm  18.6591 -3.68057 16.9183
RightHand  0.029291 3.46852 0.136462
LeftUpLeg  -22.2063 17.9104 -4.04314
LeftLeg  28.9299 0.493052 0.631617
LeftFoot  -7.78171 0.26838 -7.1315
LeftToes  -2.73175e-012 1.00346e-010 -4.28452e-011
400
root  45.1437 39.9092 -41.2656 178.085 -43.6179 -177.504
RightUpLeg  2.45635 -9.50838 -2.55316
RightLeg  7.32986 -20.4115 3.34579
RightFoot  -8.38167 -0.241258 7.12131
RightToes  -1.33073e-015 0 -3.6325e-017
Spine  5.42381 3.36768 10.2607
Spine1  2.41931 5.33099 -7.03368
HEad  -18.0107 59.9112 -19.8936
LeftShoulder1  1.04612 0.841368 -33.2196
LeftArm  -1.68111 8.23887 -28.7936
LeftForeArm  5.85876 3.51677 -18.1168
LeftHand  0.174376 0.694465 -4.45578
RightShoulder  9.65152 13.9752 48.3401
RightArm  3.81508 3.33106 11.3858
RightForeArm  19.7349 -3.67751 16.8963
RightHand  -0.0095534 3.60658 -0.376592
LeftUpLeg  -21.7167 25.9424 -8.55781
LeftLeg  19.4586 0.335043 0.456068
LeftFoot  -7.4059 0.314795 -7.86391
LeftToes  -2.73175e-012 1.00346e-010 -4.28452e-011
401
root  44.8548 39.9068 -42.0716 177.599 -46.2861 -176.564
RightUpLeg  4.92963 -8.70361 -1.35582
RightLeg  4.84979 -23.6176 4.25726
RightFoot  -8.88727 -0.218708 7.37689
RightToes  -1.33073e-015 0 -3.6325e-017
Spine  4.75332 3.4577 9.70156
Spine1  2.35706 5.24781 -6.56432
HEad  -17.0411 58.6612 -18.625
LeftShoulder1  0.995846 0.945341 -32.852
LeftArm  -2.23784 12.0046 -27.502
LeftForeArm  5.15623 3.45363 -18.0736
LeftHand  0.19254 0.589982 -4.78635
RightShoulder  9.67957 14.0965 48.1432
RightArm  5.15579 4.01364 10.9797
RightForeArm  19.6462 -3.90062 17.1279
RightHand  -0.0588554 3.82299 -1.00362
LeftUpLeg  -19.2154 24.4496 -8.28582
LeftLeg  11.4837 12.4979 -1.52451
LeftFoot  -6.96248 0.351919 -8.1057
LeftToes  -2.73175e-012 1.00346e-010 -4.28452e-011
402
root  44.5003 39.7848 -42.8801 176.408 -49.131 -175.113
RightUpLeg  7.10753 -8.11081 0.0168304
RightLeg  3.78745 -26.6405 5.03206
RightFoot  -10.1598 -0.154559 8.26989
RightToes  -1.33073e-015 0 -3.6325e-017
Spine  4.23398 3.42374 9.20232
Spine1  2.32366 5.04572 -5.9035
HEad  -16.1538 57.3469 -17.1546
LeftShoulder1  0.937671 1.04943 -32.1328
LeftArm  -2.65069 14.7649 -26.3926
LeftForeArm  4.41553 3.70962 -18.0617
LeftHand  0.24975 0.342335 -5.84184
RightShoulder  9.79192 14.2944 48.1588
RightArm  7.44462 5.07297 10.624
RightForeArm  17.9503 -4.60089 17.5767
RightHand  -0.0620405 3.65415 -1.05163
LeftUpLeg  -15.4729 11.2235 -4.20648
LeftLeg  3.99248 36.2096 -6.3403
LeftFoot  -6.9028 0.341367 -7.73462
LeftToes  -2.73175e-012 1.00346e-010 -4.28452e-011
403
root  44.0857 39.5857 -43.6993 174.701 -51.9043 -173.435
RightUpLeg  8.88576 -7.93882 1.2929
RightLeg  4.35737 -29.246 5.40216
RightFoot  -11.9034 -0.0353475 9.28948
RightToes  -1.33073e-015 0 -3.6325e-017
Spine  3.83422 3.45795 8.5626
Spine1  2.4019 4.89624 -5.091
HEad  -15.3012 55.8624 -15.6572
LeftShoulder1  0.923695 1.04816 -31.5431
LeftArm  -2.59506 16.0313 -25.0357
LeftForeArm  3.33827 4.17413 -18.1221
LeftHand  0.310268 0.125522 -6.91322
RightShoulder  10.1834 14.8908 48.4577
RightArm  8.15645 6.49608 10.2378
RightForeArm  19.4314 -4.36025 17.786
RightHand  -0.113277 3.62393 -1.71293
LeftUpLeg  -13.8178 8.00238 -4.43817
LeftLeg  0.219453 44.379 -8.11425
LeftFoot  -6.75166 0.215587 -4.36837
LeftToes  -2.73175e-012 1.00346e-010 -4.28452e-011
404
root  43.6083 39.3526 -44.5444 172.66 -54.2627 -171.729
RightUpLeg  10.3551 -9.84437 1.91522
RightLeg  6.78548 -29.2799 4.93584
RightFoot  -13.636 0.121532 10.6742
RightToes  -1.33073e-015 0 -3.6325e-017
Spine  3.41556 3.66753 7.77277
Spine1  2.7966 4.9477 -4.3897
HEad  -14.6139 54.2449 -14.0582
LeftShoulder1  0.96167 0.908857 -30.9866
LeftArm  -1.96083 15.7988 -23.5841
LeftForeArm  1.85209 4.8697 -18.2671
LeftHand  0.342354 0.209366 -7.76019
RightShoulder  11.0849 16.1731 49.301
RightArm  2.41384 8.07983 9.27961
RightForeArm  27.675 -5.1593 17.017
RightHand  -0.103198 3.49078 -1.59761
LeftUpLeg  -12.9477 6.93223 -5.05756
LeftLeg  1.56669 43.1839 -6.03503
LeftFoot  -8.00813 -0.0385646 2.9817
LeftToes  -2.73175e-012 1.00346e-010 -4.28452e-011
405
root  43.0822 39.1564 -45.3828 170.854 -55.8898 -170.76
RightUpLeg  12.101 -19.9149 -0.00587781
RightLeg  11.1612 -19.4714 2.71612
RightFoot  -15.0717 0.320968 12.9589
RightToes  -1.33073e-015 0 -3.6325e-017
Spine  3.38651 4.10468 6.60751
Spine1  3.2954 5.3546 -4.07179
HEad  -14.1435 52.7401 -12.4541
LeftShoulder1  1.00817 0.742733 -30.4389
LeftArm  0.471338 14.4322 -22.2589
LeftForeArm  0.264234 4.58432 -18.6133
LeftHand  0.3571 0.072014 -7.8632
RightShoulder  12.288 17.8852 50.2542
RightArm  -5.57226 9.05233 8.17915
RightForeArm  36.4737 -6.52134 15.6242
RightHand  -0.0146349 3.1441 -0.43212
LeftUpLeg  -12.7547 6.28437 -5.42775
LeftLeg  6.15868 42.4426 -1.54454
LeftFoot  -8.27883 -0.189038 8.9205
LeftToes  -2.73175e-012 1.00346e-010 -4.28452e-011
406
root  42.56 39.0243 -46.0938 171.17 -57.265 -172.285
RightUpLeg  12.1662 -34.6651 -4.88384
RightLeg  19.7009 -3.25879 -1.50564
RightFoot  -15.8085 0.582002 17.5626
RightToes  -1.33073e-015 0 -3.6325e-017
Spine  4.39379 4.59037 4.34192
Spine1  2.84167 5.80089 -4.2628
HEad  -14.285 51.4686 -11.4991
LeftShoulder1  1.02585 0.686212 -30.3336
LeftArm  2.2881 12.4005 -20.9177
LeftForeArm  -0.61063 4.05704 -18.847
LeftHand  0.347096 0.0503658 -7.60979
RightShoulder  13.2441 19.0169 51.4138
RightArm  -9.01968 9.84918 7.48898
RightForeArm  38.1726 -7.01269 15.0072
RightHand  0.0391016 2.85461 0.332028
LeftUpLeg  -12.7948 6.81542 -6.6425
LeftLeg  11.7328 40.7186 2.71315
LeftFoot  -8.70562 -0.190749 10.5433
LeftToes  -2.73175e-012 1.00346e-010 -4.28452e-011
407
root  42.0485 38.832 -46.6275 172.633 -59.5232 -174.21
RightUpLeg  6.5496 -31.4454 -5.96582
RightLeg  32.8718 -3.10627 -2.40349
RightFoot  -13.2665 0.352062 25.9526
RightToes  -1.33073e-015 0 -3.6325e-017
Spine  5.02729 4.62611 2.72728
Spine1  2.35763 5.86203 -5.3593
HEad  -13.7342 50.0418 -10.4002
LeftShoulder1  1.13566 0.399797 -30.518
LeftArm  4.23608 9.28995 -19.9523
LeftForeArm  -1.99319 3.46125 -19.0947
LeftHand  0.327282 0.0182496 -7.1296
RightShoulder  13.5277 19.4388 51.5407
RightArm  -9.3429 10.4037 8.35884
RightForeArm  34.4711 -7.15378 15.0908
RightHand  0.0459953 2.78263 0.438563
LeftUpLeg  -13.4027 8.5641 -8.56542
LeftLeg  16.1683 36.7379 5.66294
LeftFoot  -10.136 -0.0425551 9.8309
LeftToes  -2.73175e-012 1.00346e-010 -4.28452e-011
408
root  41.5065 38.6703 -47.0009 173.324 -61.7779 -175.029
RightUpLeg  -0.351109 -26.5765 -6.69222
RightLeg  45.9169 -1.34765 -1.80346
RightFoot  -4.90267 -1.70242 29.0654
RightToes  -1.33073e-015 0 -3.6325e-017
Spine  5.49381 4.39711 2.89539
Spine1  2.0303 5.85166 -7.35161
HEad  -12.6066 48.7096 -9.5955
LeftShoulder1  1.24577 0.117512 -30.7258
LeftArm  3.84582 5.72728 -19.6073
LeftForeArm  -2.10864 3.44087 -19.1056
LeftHand  0.307627 -0.0937501 -6.55047
RightShoulder  13.4998 19.977 50.2603
RightArm  -7.57394 10.2213 10.3897
RightForeArm  28.9989 -7.10459 15.5135
RightHand  0.0632292 3.16532 0.624453
LeftUpLeg  -13.3975 8.46913 -9.48254
LeftLeg  18.9001 34.6161 6.96233
LeftFoot  -12.1071 0.133963 9.10664
LeftToes  -2.73175e-012 1.00346e-010 -4.28452e-011
409
root  40.9389 38.6206 -47.3842 174.109 -64.4408 -176.239
RightUpLeg  -7.33854 -20.3542 -7.35017
RightLeg  56.6105 0.93902 1.10884
RightFoot  7.86496 -3.10164 18.5083
RightToes  -1.33073e-015 0 -3.6325e-017
Spine  5.89936 4.00919 1.8094
Spine1  1.87148 5.33264 -7.61498
HEad  -11.6196 47.8332 -9.60145
LeftShoulder1  1.33194 -0.0607729 -31.3097
LeftArm  1.72579 1.54905 -19.6172
LeftForeArm  -1.80553 3.80089 -18.9844
LeftHand  0.327728 -0.160496 -6.88511
RightShoulder  13.528 20.5237 49.2093
RightArm  -5.42162 10.9535 11.5337
RightForeArm  25.679 -6.9049 15.925
RightHand  0.0840275 3.69202 0.817098
LeftUpLeg  -11.9773 7.38602 -10.0751
LeftLeg  19.4589 33.2853 6.54315
LeftFoot  -13.4412 0.238516 8.57932
LeftToes  -2.73175e-012 1.00346e-010 -4.28452e-011
410
root  40.4243 38.4228 -47.7797 175.257 -67.5133 -178.074
RightUpLeg  -11.6891 -14.0135 -8.51392
RightLeg  63.11 1.88143 3.49674
RightFoot  9.1042 -2.85659 16.0952
RightToes  -1.33073e-015 0 -3.6325e-017
Spine  6.48997 3.80933 -0.372189
Spine1  2.18655 4.65332 -7.19709
HEad  -10.2178 46.7309 -9.20759
LeftShoulder1  1.46193 -0.324165 -32.1406
LeftArm  -2.41539 -3.65008 -20.0981
LeftForeArm  -0.379019 4.59677 -18.637
LeftHand  0.317866 0.00646433 -6.9083
RightShoulder  13.6307 20.8198 48.972
RightArm  -4.81401 12.4583 11.4453
RightForeArm  26.1744 -6.86337 15.9352
RightHand  0.0355967 3.96167 0.174173
LeftUpLeg  -11.3702 6.76527 -11.2333
LeftLeg  22.1579 30.9052 7.83897
LeftFoot  -15.301 0.347234 7.3697
LeftToes  -2.73175e-012 1.00346e-010 -4.28452e-011
